<svg width="15" height="16" viewBox="0 0 15 16" fill="none" xmlns="http://www.w3.org/2000/svg">
<path d="M8.73655 8L14.9548 0.321472C15.059 0.193865 14.9714 0 14.8103 0H12.92C12.8086 0 12.702 0.0515337 12.6286 0.139877L7.5 6.47362L2.37142 0.139877C2.30035 0.0515337 2.19375 0 2.08005 0H0.189699C0.0286162 0 -0.0590318 0.193865 0.0451981 0.321472L6.26346 8L0.0451981 15.6785C0.0218496 15.707 0.00687072 15.7418 0.00203912 15.7788C-0.00279249 15.8158 0.00272616 15.8534 0.0179404 15.8873C0.0331547 15.9211 0.0574256 15.9497 0.0878709 15.9697C0.118316 15.9897 0.153657 16.0002 0.189699 16H2.08005C2.19139 16 2.29798 15.9485 2.37142 15.8601L7.5 9.52638L12.6286 15.8601C12.6996 15.9485 12.8062 16 12.92 16H14.8103C14.9714 16 15.059 15.8061 14.9548 15.6785L8.73655 8Z" fill="white"/>
</svg>
